<svg width="34" height="34" viewBox="0 0 34 34" fill="none" xmlns="http://www.w3.org/2000/svg">
<path fill-rule="evenodd" clip-rule="evenodd" d="M2.91429 4.71389L2.91429 12.3112H10.5093L2.91429 4.71389ZM2.9143 16.1085L2.91429 14.8532H13.0506L20.7015 22.5064H4.35657C3.43165 20.5667 2.9143 18.3973 2.9143 16.1085ZM5.89737 25.0485H23.2428L29.2278 31.0353H17.8946C12.9831 31.0353 8.62827 28.6818 5.89737 25.0485ZM17.8946 33.9496C11.2791 33.9496 5.50211 30.3705 2.40528 25.0485H2.34888V24.9509C0.854228 22.3444 9.72748e-06 19.3259 9.72748e-06 16.1085L0 0.0512927H1.75647L1.80792 0L1.8592 0.0512927H16.225C26.0419 0.0512927 34 7.98561 34 17.7731V33.9496H32.2422L32.1916 34L32.1412 33.9496H17.8946ZM14.9907 2.96558H16.225C18.4633 2.96558 20.5849 3.45824 22.4874 4.34032V20.6857L14.9907 13.1868V2.96558ZM25.0371 23.2361L31.0857 29.2866V17.7731C31.0857 12.8854 28.7073 8.54605 25.0371 5.84834V23.2361ZM12.4411 2.96558H4.77261L12.4411 10.6363V2.96558Z" fill="#20263C"/>
</svg>
